<svg width="64" height="64" viewBox="0 0 64 64" fill="none" xmlns="http://www.w3.org/2000/svg">
  <g clip-path="url(#clip0)">
    <path d="M32 2C16.536 2 4 14.536 4 30C4 45.464 16.536 58 32 58C47.464 58 60 45.464 60 30C60 14.536 47.464 2 32 2ZM32 54C18.745 54 8 43.255 8 30C8 16.745 18.745 6 32 6C45.255 6 56 16.745 56 30C56 43.255 45.255 54 32 54Z" fill="#4770FF"/>
    <path d="M22 22H42V32H22V22Z" fill="#4770FF"/>
    <path d="M32 34C32.5304 34 33.0391 34.2107 33.4142 34.5858C33.7893 34.9609 34 35.4696 34 36V38C34 38.5304 33.7893 39.0391 33.4142 39.4142C33.0391 39.7893 32.5304 40 32 40C31.4696 40 30.9609 39.7893 30.5858 39.4142C30.2107 39.0391 30 38.5304 30 38V36C30 35.4696 30.2107 34.9609 30.5858 34.5858C30.9609 34.2107 31.4696 34 32 34Z" fill="#4770FF"/>
  </g>
  <defs>
    <clipPath id="clip0">
      <rect width="64" height="64" fill="white"/>
    </clipPath>
  </defs>
</svg>
